<?xml version="1.0" encoding="iso-8859-1"?>
<!-- Generator: Adobe Illustrator 19.0.0, SVG Export Plug-In . SVG Version: 6.00 Build 0)  -->
<svg version="1.1" id="Capa_1" xmlns="http://www.w3.org/2000/svg" xmlns:xlink="http://www.w3.org/1999/xlink" x="0px" y="0px"
	 viewBox="0 0 454.531 454.531" style="enable-background:new 0 0 454.531 454.531;" xml:space="preserve">
<g>
	<g>
		<g>
			<path style="fill:#D4E1F4;" d="M454.531,151.51v216.816c0,17.312-14.035,31.347-31.347,31.347H31.347
				C14.035,399.673,0,385.639,0,368.327V151.51H454.531z"/>
			<path style="fill:#00EFD1;" d="M454.531,86.204v65.306H0V86.204c0-17.312,14.035-31.347,31.347-31.347h391.837
				C440.496,54.857,454.531,68.892,454.531,86.204z"/>
		</g>
		<g>
			<path style="fill:#00ACEA;" d="M226.743,229.878c-2.756-0.039-5.385-1.166-7.314-3.135L204.8,212.114
				c-4.04-3.706-4.31-9.986-0.603-14.025c0.192-0.21,0.394-0.411,0.603-0.603c4.24-4.047,10.911-4.047,15.151,0l14.106,14.629
				c4.04,3.706,4.31,9.986,0.603,14.025c-0.192,0.21-0.394,0.411-0.603,0.603C232.203,228.819,229.525,229.967,226.743,229.878z"/>
			<path style="fill:#00ACEA;" d="M264.359,225.698c-5.012-0.195-9.178-3.922-9.927-8.882l-4.18-21.943
				c-0.607-5.739,3.553-10.883,9.292-11.49c4.967-0.525,9.611,2.538,11.083,7.31l4.18,22.465c0.953,5.614-2.764,10.958-8.359,12.016
				L264.359,225.698z"/>
			<path style="fill:#00ACEA;" d="M222.563,267.494h-2.09l-21.943-4.18c-5.595-1.059-9.313-6.402-8.359-12.016
				c1.058-5.595,6.402-9.313,12.016-8.359l22.465,4.18c5.51,1.716,8.585,7.574,6.869,13.084
				C230.273,264.212,226.744,267.085,222.563,267.494z"/>
		</g>
	</g>
	<g>
		<circle style="fill:#00ACEA;" cx="182.857" cy="101.878" r="20.898"/>
		<circle style="fill:#00ACEA;" cx="114.939" cy="101.878" r="20.898"/>
		<circle style="fill:#00ACEA;" cx="47.02" cy="101.878" r="20.898"/>
		<polygon style="fill:#00ACEA;" points="374.073,286.824 332.8,308.767 362.58,338.547 345.861,354.743 316.082,325.486 
			294.661,366.759 251.82,244.506 		"/>
	</g>
</g>
<g>
</g>
<g>
</g>
<g>
</g>
<g>
</g>
<g>
</g>
<g>
</g>
<g>
</g>
<g>
</g>
<g>
</g>
<g>
</g>
<g>
</g>
<g>
</g>
<g>
</g>
<g>
</g>
<g>
</g>
</svg>
