<svg id="File_management" height="512" viewBox="0 0 64 64" width="512" xmlns="http://www.w3.org/2000/svg" data-name="File management"><path d="m25 7h36v54h-36z" fill="#ffcd25"/><path d="m57 57h-42v-54h30l12 13z" fill="#ffe027"/><path d="m57 16h-12v-13z" fill="#ffe464"/><path d="m28.667 31.167h8a0 0 0 0 1 0 0v29a4 4 0 0 1 -4 4 4 4 0 0 1 -4-4v-29a0 0 0 0 1 0 0z" fill="#cc8355" transform="matrix(.707 -.707 .707 .707 -24.138 37.061)"/><circle cx="19" cy="34" fill="#23be99" r="16"/><circle cx="19" cy="34" fill="#fff" r="12"/><g fill="#1a6fb0"><path d="m20 7h6v2h-6z"/><path d="m29 7h12v2h-12z"/><path d="m20 12h21v2h-21z"/><path d="m36 20h18v2h-18z"/><path d="m36 25h18v2h-18z"/><path d="m38 30h16v2h-16z"/><path d="m38 35h4v2h-4z"/><path d="m44 35h10v2h-10z"/></g></svg>