<svg id="Capa_1" enable-background="new 0 0 512 512" height="512" viewBox="0 0 512 512" width="512" xmlns="http://www.w3.org/2000/svg"><g><g><g><g><path d="m322.035 322.53v49.33h-132.07v-50.17c0-6.43 5.23-11.66 11.679-11.66h24.368v-118.53l-17.269 17.27c-4.47 4.47-11.719 4.47-16.189 0l-26.238-26.25c-4.47-4.47-4.47-11.71 0-16.18l54.826-54.83c3.12-3.11 7.339-4.86 11.739-4.86h42.497c5.88 0 10.629 4.76 10.629 10.63v193.58h24.358c6.451 0 11.67 5.23 11.67 11.67z" fill="#ff4a4a"/></g></g></g><path d="m322.035 322.53v49.33h-66.035v-265.21h19.379c5.88 0 10.629 4.76 10.629 10.63v193.58h24.358c6.45 0 11.669 5.23 11.669 11.67z" fill="#c73c50"/><g><path d="m270.804 15v33c0 8.28-6.71 15-14.999 15-8.279 0-14.999-6.72-14.999-15v-33c0-8.28 6.719-15 14.999-15 8.289 0 14.999 6.72 14.999 15z" fill="#fc0"/></g><g><path d="m127.905 154.207h-32.998c-8.284 0-14.999-6.716-14.999-15s6.715-15 14.999-15h32.998c8.284 0 14.999 6.716 14.999 15s-6.716 15-14.999 15z" fill="#fc0"/></g><g><path d="m396.778 154.207h-32.998c-8.284 0-14.999-6.716-14.999-15s6.715-15 14.999-15h32.998c8.284 0 14.999 6.716 14.999 15s-6.715 15-14.999 15z" fill="#ff8756"/></g><g><path d="m330.046 72.759c-5.858-5.857-5.858-15.354 0-21.213l21.261-21.264c5.857-5.857 15.354-5.859 21.211 0 5.857 5.857 5.858 15.354 0 21.213l-21.261 21.264c-5.857 5.857-15.355 5.858-21.211 0z" fill="#ff8756"/></g><g><path d="m160.427 72.759-21.262-21.264c-5.857-5.857-5.857-15.355 0-21.213s15.353-5.858 21.212 0l21.262 21.264c5.857 5.857 5.857 15.355 0 21.213-5.856 5.856-15.353 5.859-21.212 0z" fill="#fc0"/></g><path d="m270.804 15v33c0 8.28-6.71 15-14.999 15v-63c8.289 0 14.999 6.72 14.999 15z" fill="#ff8756"/><g><path d="m508.033 486.86c8.806 9.571 1.998 25.14-11.049 25.14h-101.284c-8.289 0-14.999-6.72-14.999-15v-90c0-8.28 6.71-15 14.999-15h101.283c13.057 0 19.847 15.577 11.049 25.14l-31.977 34.86z" fill="#ff8756"/></g><g><path d="m131.299 407v90c0 8.28-6.71 15-14.999 15h-101.283c-13.057 0-19.848-15.577-11.05-25.14l31.978-34.86-31.978-34.86c-8.806-9.571-1.997-25.14 11.05-25.14h101.283c8.289 0 14.999 6.72 14.999 15z" fill="#fc0"/></g><g><path d="m277.389 388.187-21.389-26.187h-139.7c-8.279 0-14.999 6.72-14.999 15v90c0 8.28 6.72 15 14.999 15h139.7l21.389-24.993z" fill="#fff161"/></g><path d="m410.699 377v90c0 8.28-6.72 15-14.999 15h-139.7v-120h139.7c8.28 0 14.999 6.72 14.999 15z" fill="#fc0"/></g></svg>